<svg width="170" height="82" viewBox="0 0 170 82" fill="none" xmlns="http://www.w3.org/2000/svg">
<path d="M5.89437 54.9997C11.707 59.5206 20.084 58.4735 24.6049 52.6609C29.1259 46.8482 28.0788 38.4712 22.2661 33.9503C16.4535 29.4294 8.07648 30.4765 3.55555 36.2891C-0.965384 42.1018 0.0817421 50.4788 5.89437 54.9997ZM14.0802 44.475C16.5207 45.0173 16.5206 45.018 16.5204 45.0186C16.5204 45.0188 16.5203 45.0193 16.5202 45.0195C16.5201 45.02 16.5201 45.0202 16.5201 45.0201C16.5201 45.02 16.5204 45.0188 16.5209 45.0165C16.5219 45.012 16.5239 45.0032 16.5269 44.9904C16.5329 44.9647 16.5429 44.9226 16.5569 44.8652C16.585 44.7502 16.6294 44.5739 16.6913 44.344C16.8151 43.8839 17.0084 43.2112 17.2798 42.388C17.8245 40.7363 18.6747 38.507 19.8949 36.1838C22.3834 31.4462 26.1544 26.7945 31.5637 25.2732L30.2099 20.4599C22.8142 22.54 18.1819 28.6926 15.4684 33.8588C14.0876 36.4876 13.1371 38.9851 12.5313 40.8222C12.2275 41.7435 12.0081 42.5058 11.8631 43.0444C11.7906 43.3139 11.7365 43.528 11.6997 43.6786C11.6813 43.7539 11.6672 43.8134 11.6573 43.8561C11.6523 43.8774 11.6484 43.8945 11.6455 43.9073C11.644 43.9137 11.6428 43.9191 11.6419 43.9233C11.6414 43.9254 11.641 43.9272 11.6406 43.9288C11.6405 43.9296 11.6402 43.9306 11.6402 43.9309C11.64 43.9318 11.6398 43.9327 14.0802 44.475Z" fill="#F1F0E8"/>
<path d="M36.09 20.866C44.4933 17.6647 71.7043 37.6726 80.1075 39.6734" stroke="#F1F0E8" stroke-width="5"/>
<path d="M88.9089 42.8783C101.714 49.2808 120.921 53.6825 133.326 53.6825" stroke="#F1F0E8" stroke-width="5"/>
<path d="M110.115 20.4682C138.927 4.06164 153.332 14.466 159.335 20.4682C165.337 26.4703 168.138 50.4796 140.927 52.8808" stroke="#F1F0E8" stroke-width="5"/>
<path d="M23.8257 54.8697C22.4932 55.2314 21.7063 56.6049 22.068 57.9373L27.9622 79.6516C28.3239 80.9841 29.6974 81.771 31.0299 81.4093C32.3623 81.0476 33.1493 79.6742 32.7876 78.3417L27.5483 59.0402L46.8498 53.8009C48.1823 53.4392 48.9693 52.0657 48.6076 50.7332C48.2459 49.4008 46.8725 48.6138 45.54 48.9755L23.8257 54.8697ZM101.866 23.7991C96.4671 26.2828 91.0224 30.9235 85.5529 35.8405C79.9751 40.8548 74.2704 46.2553 68.0783 50.7586C61.9062 55.2474 55.4562 58.683 48.5335 59.8436C41.682 60.9922 34.1605 59.9477 25.7236 55.1133L23.2377 59.4516C32.6081 64.8209 41.2932 66.1272 49.3602 64.7748C57.356 63.4343 64.5363 59.5171 71.0192 54.8023C77.482 50.102 83.4567 44.4483 88.8956 39.5588C94.4427 34.5721 99.3517 30.4595 103.956 28.3415L101.866 23.7991Z" fill="#F1F0E8"/>
</svg>
