<svg width="81" height="83" viewBox="0 0 81 83" fill="none" xmlns="http://www.w3.org/2000/svg">
<line x1="39.8887" y1="52.5873" x2="26.6304" y2="39.329" stroke="#F1F0E8" stroke-width="6"/>
<line x1="38.1469" y1="50.1065" x2="59.3601" y2="28.8933" stroke="#F1F0E8" stroke-width="6"/>
<path d="M3 35.9996C3.01438 23.1515 16.5 3.00012 39.5 3C62.5 2.99988 74.3399 22.6536 78 32.9462M78 32.9462C78 29.2572 78 23.5 78 23.5L71 26.5C71 26.5 75.2663 30.4288 78 32.9462Z" stroke="#F1F0E8" stroke-width="6"/>
<path d="M78 47C77.9856 59.8482 64.5 79.9995 41.5 79.9996C18.5 79.9998 6.66013 60.3461 3 50.0534M3 50.0534C3 53.7424 3 59.4996 3 59.4996L10 56.4996C10 56.4996 5.73367 52.5708 3 50.0534Z" stroke="#F1F0E8" stroke-width="6" stroke-dasharray="12 12"/>
<path d="M3 59.4463L3 50.0001L10 56.4463L3 59.4463Z" stroke="#F1F0E8" stroke-width="6"/>
</svg>
