<svg width="77" height="36" viewBox="0 0 77 36" fill="none" xmlns="http://www.w3.org/2000/svg">
<path d="M2.98488 24.4053C5.30993 26.2137 8.66074 25.7949 10.4691 23.4698C12.2775 21.1448 11.8586 17.794 9.53358 15.9856C7.20853 14.1772 3.85773 14.5961 2.04935 16.9211C0.240979 19.2462 0.65983 22.597 2.98488 24.4053ZM6.25923 20.1955C7.23542 20.4124 7.23536 20.4127 7.2353 20.4129C7.2353 20.4129 7.23525 20.4132 7.23523 20.4132C7.2352 20.4134 7.23519 20.4134 7.23521 20.4133C7.23525 20.4132 7.2354 20.4125 7.23566 20.4114C7.23618 20.4091 7.23714 20.4049 7.23855 20.3988C7.24138 20.3867 7.24601 20.3671 7.25251 20.3405C7.26551 20.2872 7.28597 20.2061 7.31439 20.1005C7.37126 19.8892 7.45982 19.581 7.58408 19.2041C7.83331 18.4483 8.22251 17.4276 8.78154 16.3633C9.9188 14.1982 11.6564 12.0429 14.1693 11.3361L13.6278 9.41081C10.3203 10.3411 8.23822 13.0967 7.01093 15.4333C6.38767 16.6199 5.95837 17.7478 5.68468 18.5778C5.54747 18.9939 5.44845 19.3379 5.38312 19.5807C5.35044 19.7021 5.32613 19.7983 5.30965 19.8658C5.3014 19.8996 5.29511 19.9261 5.2907 19.9451C5.2885 19.9545 5.28676 19.9621 5.28549 19.9677C5.28485 19.9705 5.28433 19.9728 5.28392 19.9746C5.28372 19.9755 5.28354 19.9763 5.2834 19.9769C5.28333 19.9773 5.28324 19.9777 5.2832 19.9778C5.28312 19.9782 5.28304 19.9785 6.25923 20.1955Z" fill="#F1F0E8"/>
<path d="M16.2637 9.46406C20.0833 8.00895 32.4519 17.1034 36.2716 18.0129" stroke="#F1F0E8" stroke-width="2"/>
<path d="M40.273 19.4681C46.0934 22.3783 54.8241 24.3791 60.4626 24.3791" stroke="#F1F0E8" stroke-width="2"/>
<path d="M49.9121 9.28248C63.0082 1.82495 69.5561 6.5542 72.2845 9.28246C75.0129 12.0107 76.2861 22.924 63.9176 24.0155" stroke="#F1F0E8" stroke-width="2"/>
<path d="M10.7255 25.0516C10.1925 25.1963 9.87768 25.7457 10.0224 26.2787L12.3801 34.9644C12.5248 35.4974 13.0741 35.8122 13.6071 35.6675C14.1401 35.5228 14.4549 34.9734 14.3102 34.4404L12.2145 26.7198L19.9351 24.6241C20.4681 24.4794 20.7829 23.93 20.6382 23.397C20.4935 22.8641 19.9442 22.5493 19.4112 22.6939L10.7255 25.0516ZM46.2198 10.9209C43.7873 12.0399 41.327 14.1349 38.8387 16.3718C36.3072 18.6476 33.7067 21.1093 30.8848 23.1616C28.0708 25.2081 25.119 26.7829 21.9431 27.3154C18.7956 27.843 15.345 27.3611 11.4846 25.1491L10.4903 26.8844C14.7241 29.3104 18.6401 29.897 22.2738 29.2878C25.879 28.6834 29.1228 26.916 32.0611 24.7791C34.9914 22.648 37.6998 20.085 40.1758 17.8591C42.6951 15.5943 44.9411 13.7106 47.0556 12.7379L46.2198 10.9209Z" fill="#F1F0E8"/>
</svg>
